<svg width="323" height="323" viewBox="0 0 323 323" fill="none" xmlns="http://www.w3.org/2000/svg">
<path d="M191.404 142.147C191.404 136.263 178.754 122 168.614 122C160.827 122 160.701 126.118 153.113 126.118C141.415 126.118 132.734 106.56 110.237 106.56C86.268 106.56 54.9478 129.057 54.9478 146.704C54.9478 171.973 191.404 178.029 191.404 142.147Z" fill="#E2E2E2"/>
<path d="M251.808 228.706C252.077 201.251 252.508 157.148 252.508 150.62C252.508 141.043 238.285 112.358 213.406 112.358C186.15 112.358 172.681 143.638 154.841 143.638C138.489 143.638 137.2 135.359 116.958 135.359C103.769 135.359 76.6318 152.262 76.6318 169.543L94.6956 228.692L251.808 228.706Z" fill="#F3F3F3"/>
<path d="M163.608 183.091C163.692 181.349 163.128 179.907 162.348 179.869C161.569 179.832 160.869 181.213 160.785 182.955C160.701 184.696 161.265 186.139 162.044 186.176C162.824 186.214 163.524 184.833 163.608 183.091Z" fill="#D37C59"/>
<path d="M158.859 199.097C158.806 198.575 160.022 187.73 160.991 184.293C161.568 184.081 162.184 183.994 162.797 184.04L162.706 194.726L161.36 199.751L158.859 199.097Z" fill="#D37C59"/>
<path d="M167.072 183.997L158.609 184.697L158.34 183.023L166.485 180.447L167.072 183.997Z" fill="black"/>
<path d="M150.214 268.962H146.507V272.098H150.214V268.962Z" fill="#DE8E68"/>
<path d="M161.681 269.452H157.974V272.588H161.681V269.452Z" fill="#DE8E68"/>
<path d="M146.123 216.679V269.134H150.464L155.455 241.071C155.455 241.071 156.141 225.89 146.123 216.679Z" fill="#ABDCAF"/>
<path d="M160.423 215.646C160.544 217.158 162.055 244.683 162.055 244.683V269.745L157.6 270.222L154.736 243.574L146.123 216.679C147.425 215.963 156.967 214.615 160.423 215.646Z" fill="#8CBC90"/>
<path d="M152.486 192.581C161.042 192.581 161.449 214.337 160.431 215.646C159.414 216.954 147.242 217.845 146.122 216.676C145.003 215.508 141.824 192.581 152.486 192.581Z" fill="#F9BB6F"/>
<path d="M165.025 183.09C165.109 181.348 164.545 179.906 163.765 179.868C162.986 179.831 162.286 181.212 162.202 182.954C162.118 184.695 162.682 186.138 163.461 186.175C164.241 186.213 164.941 184.832 165.025 183.09Z" fill="#DE8E68"/>
<path d="M157.627 272.098V275.234H166.439V274.092L161.855 272.098H157.627Z" fill="black"/>
<path d="M146.392 271.603V274.738H155.204V273.597L150.62 271.603H146.392Z" fill="black"/>
<path d="M158.555 183.329L157.528 183.49L157.689 184.517L158.716 184.355L158.555 183.329Z" fill="black"/>
<path d="M153.113 194.473C153.113 195.192 149.772 195.28 149.772 194.473V187.34H153.113V194.473Z" fill="#D37C59"/>
<path d="M153.011 190.627C154.948 190.627 156.518 188.23 156.518 185.273C156.518 182.316 154.948 179.919 153.011 179.919C151.074 179.919 149.503 182.316 149.503 185.273C149.503 188.23 151.074 190.627 153.011 190.627Z" fill="#DC8E6C"/>
<path d="M146.903 183.066C146.903 181.416 147.622 180.374 148.206 180.043C149.334 179.397 149.805 179.685 150.941 179.182C152.171 178.643 153.226 177.071 154.666 177.071C156.012 177.071 155.891 177.836 156.803 178.062C157.341 178.194 160.399 177.491 160.399 179.47C160.399 182.517 157.016 182.764 156.232 183.154C156.115 182.804 155.978 182.459 155.823 182.124C155.207 182.759 152.975 183.2 152.615 183.343C151.78 183.687 151.382 184.993 151.382 185.846C151.382 186.699 150.609 186.702 150.416 186.702C148.631 186.702 146.903 185.558 146.903 183.066Z" fill="#FD8992"/>
<path d="M149.837 187.34C150.481 187.34 151.003 186.818 151.003 186.175C151.003 185.531 150.481 185.009 149.837 185.009C149.193 185.009 148.672 185.531 148.672 186.175C148.672 186.818 149.193 187.34 149.837 187.34Z" fill="#DC8E6C"/>
<path d="M144.798 196.737C144.798 194.868 143.283 193.353 141.415 193.353C139.546 193.353 138.031 194.868 138.031 196.737V212.744C138.031 214.613 139.546 216.127 141.415 216.127C143.283 216.127 144.798 214.613 144.798 212.744V196.737Z" fill="#D3D3D3"/>
<path d="M146.666 211.062C151.182 211.062 154.844 207.098 154.844 202.209C154.844 197.319 151.182 193.356 146.666 193.356C142.15 193.356 138.489 197.319 138.489 202.209C138.489 207.098 142.15 211.062 146.666 211.062Z" stroke="#D3D3D3" stroke-width="3.69" stroke-miterlimit="10"/>
<path d="M155.266 198.33C155.947 198.33 159.382 198.473 160.779 198.976C160.886 198.295 161.495 188.541 162.531 185.273C162.927 184.837 164.536 184.888 164.536 185.273C164.536 185.658 166.827 201.66 164.536 203.557C162.246 205.455 154.477 202.911 154.157 202.661C153.837 202.411 155.266 198.33 155.266 198.33Z" fill="#DE8E68"/>
<path d="M147.95 197.754C148.709 194.664 155.584 197.235 156.205 197.94C156.951 198.785 155.619 203.549 154.59 203.77C152.913 204.133 146.965 201.762 147.95 197.754Z" fill="#F9BB6F"/>
<path d="M71.7007 91.9608L38.394 228.705H105.01L71.7007 91.9608Z" fill="#F9BB6F"/>
<path d="M45.6561 91.9608L12.3467 240.608H78.9627L45.6561 91.9608Z" fill="#ABDCAF"/>
<path d="M45.8364 239.946V106.418" stroke="#F9BB6F" stroke-width="3.84" stroke-linecap="round" stroke-linejoin="round"/>
<path d="M45.8364 150.451L53.0743 142.583" stroke="#F9BB6F" stroke-width="3.84" stroke-linecap="round" stroke-linejoin="round"/>
<path d="M45.8364 188.131L56.7135 176.31" stroke="#F9BB6F" stroke-width="3.84" stroke-linecap="round" stroke-linejoin="round"/>
<path d="M45.8364 227.44L62.7536 209.051" stroke="#F9BB6F" stroke-width="3.84" stroke-linecap="round" stroke-linejoin="round"/>
<path d="M45.8363 150.451L38.5984 142.583" stroke="#F9BB6F" stroke-width="3.84" stroke-linecap="round" stroke-linejoin="round"/>
<path d="M45.8362 188.131L34.9619 176.31" stroke="#F9BB6F" stroke-width="3.84" stroke-linecap="round" stroke-linejoin="round"/>
<path d="M45.8363 227.44L28.9192 209.051" stroke="#F9BB6F" stroke-width="3.84" stroke-linecap="round" stroke-linejoin="round"/>
<path d="M69.4987 197.66H69.496C59.4334 197.66 51.2761 205.817 51.2761 215.88V232.509C51.2761 242.571 59.4334 250.729 69.496 250.729H69.4987C79.5613 250.729 87.7186 242.571 87.7186 232.509V215.88C87.7186 205.817 79.5613 197.66 69.4987 197.66Z" fill="#8CBC90"/>
<path d="M69.4961 264.575V214.216" stroke="#F9BB6F" stroke-width="3.69" stroke-linecap="round" stroke-linejoin="round"/>
<path d="M69.4961 235.631C79.4553 235.631 79.4553 229.634 79.4553 220.558" stroke="#F9BB6F" stroke-width="3.69" stroke-linecap="round" stroke-linejoin="round"/>
<path d="M69.4962 226.458C62.592 226.458 62.592 222.294 62.592 216.004" stroke="#F9BB6F" stroke-width="3.69" stroke-linecap="round" stroke-linejoin="round"/>
<path d="M310.18 228.706V179.688C310.163 173.89 307.852 168.336 303.753 164.236C299.654 160.137 294.099 157.827 288.302 157.81V157.81C287.123 157.81 285.947 157.906 284.784 158.095V101.686C284.784 97.7142 283.206 93.9053 280.398 91.0968C277.59 88.2882 273.781 86.7101 269.81 86.7094V86.7094C265.838 86.7094 262.029 88.2872 259.22 91.0958C256.411 93.9045 254.833 97.7138 254.833 101.686V113.761C252.58 112.993 250.216 112.601 247.835 112.6V112.6C242.038 112.618 236.482 114.928 232.383 119.028C228.284 123.128 225.974 128.683 225.957 134.481V174.689H216.431C212.471 174.701 208.676 176.28 205.876 179.08C203.075 181.881 201.497 185.676 201.485 189.636V224.447C201.485 225.889 201.695 227.324 202.109 228.706H310.18Z" fill="#F9BB6F"/>
<path d="M269.21 199.412C293.868 199.412 293.868 188.376 293.868 171.688" stroke="#8CBC90" stroke-width="3.69" stroke-linecap="round" stroke-linejoin="round"/>
<path d="M269.234 214.117C255.668 214.117 255.668 208.044 255.668 198.863" stroke="#8CBC90" stroke-width="3.69" stroke-linecap="round" stroke-linejoin="round"/>
<path d="M269.21 228.706V98.0225" stroke="#8CBC90" stroke-width="3.69" stroke-linecap="round" stroke-linejoin="round"/>
<path d="M269.21 171.688L255.692 158.168" stroke="#8CBC90" stroke-width="3.69" stroke-linecap="round" stroke-linejoin="round"/>
<path d="M269.21 143.792L277.39 135.614" stroke="#8CBC90" stroke-width="3.69" stroke-linecap="round" stroke-linejoin="round"/>
<path d="M202.007 91.9608C202.729 89.0105 202.371 85.899 200.995 83.1907C199.62 80.4823 197.32 78.3566 194.512 77.1991C191.703 76.0416 188.573 75.929 185.689 76.8818C182.805 77.8345 180.358 79.7894 178.791 82.3919C177.257 81.6988 175.574 81.4012 173.895 81.5263C172.216 81.6514 170.595 82.1953 169.181 83.1082C167.766 84.021 166.603 85.2738 165.797 86.7521C164.991 88.2304 164.569 89.887 164.569 91.5705C164.569 91.7024 164.569 91.8397 164.569 91.9608H202.007Z" fill="#F3F3F3"/>
<path d="M78.5725 72.212C77.85 69.2617 78.2089 66.1502 79.5841 63.4419C80.9593 60.7336 83.2597 58.6078 86.068 57.4504C88.8762 56.2929 92.0063 56.1803 94.8905 57.133C97.7747 58.0857 100.222 60.0406 101.788 62.6431C103.322 61.9478 105.006 61.6485 106.686 61.7726C108.366 61.8967 109.987 62.4404 111.403 63.3537C112.818 64.2669 113.981 65.5207 114.786 67.0002C115.591 68.4796 116.012 70.1374 116.011 71.8217C116.011 71.9509 116.011 72.0909 116.011 72.212H78.5725Z" fill="#F3F3F3"/>
<path d="M248.799 251.956C235.265 251.956 224.305 257.735 224.305 264.876H273.306C273.298 257.735 262.33 251.956 248.799 251.956Z" fill="#8CBC90"/>
<path d="M135.326 271.032C131.948 271.032 129.208 273.39 129.208 276.3H141.447C141.447 273.39 138.707 271.032 135.326 271.032Z" fill="#FD8992"/>
<path d="M224.297 242.907C220.916 242.907 218.178 246.406 218.178 250.729H230.407C230.407 246.409 227.675 242.907 224.297 242.907Z" fill="#FD8992"/>
<path d="M32.5341 262.322C27.1508 262.322 22.801 264.074 22.801 266.233H42.2591C42.2591 264.074 37.9094 262.322 32.5341 262.322Z" fill="#FD8992"/>
<path d="M277.39 262.322C272.006 262.322 267.657 264.074 267.657 266.233H287.12C287.12 264.074 282.765 262.322 277.39 262.322Z" fill="#FD8992"/>
<path d="M237.421 200.946H237.418C230.903 200.946 225.621 206.228 225.621 212.744V223.511C225.621 230.026 230.903 235.308 237.418 235.308H237.421C243.937 235.308 249.219 230.026 249.219 223.511V212.744C249.219 206.228 243.937 200.946 237.421 200.946Z" fill="#8CBC90"/>
<path d="M237.421 244.277V211.667" stroke="#F9BB6F" stroke-width="2.39" stroke-linecap="round" stroke-linejoin="round"/>
<path d="M237.421 225.535C243.865 225.535 243.865 221.651 243.865 215.775" stroke="#F9BB6F" stroke-width="2.39" stroke-linecap="round" stroke-linejoin="round"/>
<path d="M237.421 219.594C232.95 219.594 232.95 216.903 232.95 212.822" stroke="#F9BB6F" stroke-width="2.39" stroke-linecap="round" stroke-linejoin="round"/>
<path d="M89.2852 255.076H111.098" stroke="#F9BB6F" stroke-width="3.69" stroke-linecap="round" stroke-linejoin="round"/>
<path d="M179.911 240.608H194.376" stroke="#F9BB6F" stroke-width="3.69" stroke-linecap="round" stroke-linejoin="round"/>
<path d="M169.002 244.277H183.469" stroke="#F9BB6F" stroke-width="3.69" stroke-linecap="round" stroke-linejoin="round"/>
<path d="M31.4602 247.267H45.9279" stroke="#F9BB6F" stroke-width="3.69" stroke-linecap="round" stroke-linejoin="round"/>
<path d="M201.485 268.962H221.82" stroke="#F9BB6F" stroke-width="3.69" stroke-linecap="round" stroke-linejoin="round"/>
</svg>
