<svg width="113" height="144" viewBox="0 0 113 144" fill="none" xmlns="http://www.w3.org/2000/svg">
<g clip-path="url(#clip0_71_810)">
<path d="M90.9813 128.505H106.69C108.341 128.498 109.922 127.841 111.089 126.676C112.256 125.511 112.915 123.934 112.922 122.286V26.1296C112.924 25.313 112.763 24.5042 112.448 23.7504C112.134 22.9967 111.671 22.3131 111.089 21.7398L91.3217 1.82906C90.7472 1.24762 90.0623 0.786375 89.307 0.472311C88.5518 0.158248 87.7414 -0.00232365 86.9232 -5.77718e-06H28.2239C26.5734 0.00687205 24.9925 0.664277 23.8254 1.82905C22.6583 2.99382 21.9996 4.57161 21.9927 6.21883V15.521" fill="#EAEAEA"/>
<path d="M64.5901 15.521H6.9905C5.1341 15.5279 3.3561 16.2687 2.04587 17.5812C0.735647 18.8938 -1.29232e-05 20.671 1.70267e-10 22.5237L1.70268e-10 136.997C-6.42981e-06 137.919 0.182349 138.832 0.536607 139.683C0.890864 140.534 1.41005 141.308 2.06439 141.958C2.71872 142.609 3.49533 143.124 4.34966 143.474C5.20398 143.825 6.11922 144.003 7.04286 144H83.9646C85.8255 144 87.6102 143.262 88.9261 141.949C90.242 140.636 90.9812 138.855 90.9812 136.997V41.8073C90.9796 39.9491 90.2461 38.166 88.9391 36.8427L69.5646 17.5068C68.2302 16.2215 66.4446 15.5087 64.5901 15.521V15.521Z" fill="#DDDDDD"/>
<path d="M90.9813 39.1943H71.4236C70.382 39.1943 69.3831 38.7814 68.6466 38.0464C67.9101 37.3113 67.4963 36.3144 67.4963 35.2749V15.521" fill="#D1D1D1"/>
<path d="M113 23.5166H93.4423C92.4007 23.5166 91.4018 23.1037 90.6653 22.3686C89.9288 21.6336 89.515 20.6367 89.515 19.5972V0" fill="#DDDDDD"/>
<path d="M31.261 27.3315H12.7244C11.3652 27.3315 10.2633 28.4312 10.2633 29.7877C10.2633 31.1442 11.3652 32.2439 12.7244 32.2439H31.261C32.6202 32.2439 33.7221 31.1442 33.7221 29.7877C33.7221 28.4312 32.6202 27.3315 31.261 27.3315Z" fill="#D1D1D1"/>
<path d="M31.261 39.1421H12.7244C11.3652 39.1421 10.2633 40.2417 10.2633 41.5982C10.2633 42.9548 11.3652 44.0544 12.7244 44.0544H31.261C32.6202 44.0544 33.7221 42.9548 33.7221 41.5982C33.7221 40.2417 32.6202 39.1421 31.261 39.1421Z" fill="#D1D1D1"/>
<path d="M79.3305 59.3402H11.6509C10.2917 59.3402 9.18982 60.4399 9.18982 61.7964C9.18982 63.1529 10.2917 64.2526 11.6509 64.2526H79.3305C80.6897 64.2526 81.7915 63.1529 81.7915 61.7964C81.7915 60.4399 80.6897 59.3402 79.3305 59.3402Z" fill="#D1D1D1"/>
<path d="M79.3305 70.9417H11.6509C10.2917 70.9417 9.18982 72.0414 9.18982 73.3979C9.18982 74.7544 10.2917 75.8541 11.6509 75.8541H79.3305C80.6897 75.8541 81.7915 74.7544 81.7915 73.3979C81.7915 72.0414 80.6897 70.9417 79.3305 70.9417Z" fill="#D1D1D1"/>
<path d="M79.3305 82.5433H11.6509C10.2917 82.5433 9.18982 83.6429 9.18982 84.9994C9.18982 86.356 10.2917 87.4556 11.6509 87.4556H79.3305C80.6897 87.4556 81.7915 86.356 81.7915 84.9994C81.7915 83.6429 80.6897 82.5433 79.3305 82.5433Z" fill="#D1D1D1"/>
</g>
<defs>
<clipPath id="clip0_71_810">
<rect width="113" height="144" fill="white"/>
</clipPath>
</defs>
</svg>
