<svg width="155" height="140" viewBox="0 0 155 140" fill="none" xmlns="http://www.w3.org/2000/svg">
<g clip-path="url(#clip0_71_831)">
<path d="M133.815 34.5081V17.5315C133.815 15.8667 132.454 14.5045 130.789 14.5045H129.377H30.5662V11.5027C30.5662 11.4523 30.5914 11.4018 30.5914 11.3514V3.15315C30.5914 1.41261 29.4061 0 27.9434 0H2.64806C1.18532 0 0 1.41261 0 3.15315V14.5045L16.2919 132.407H23.4795L137.75 52.1153L133.815 34.5081Z" fill="#EAEAEA"/>
<path d="M26.0518 22.955H145.013C150.536 22.955 155.025 27.445 155.025 32.9441V129.986C155.025 135.51 150.536 140 145.013 140H26.0518C20.5287 140 16.0396 135.51 16.0396 129.986V32.9441C16.0396 27.445 20.5287 22.955 26.0518 22.955Z" fill="#DDDDDD"/>
<path d="M89.6811 54.4612H81.3586V111.067H89.6811V54.4612Z" fill="#EAEAEA"/>
<path d="M113.841 78.6018H57.2485V86.9261H113.841V78.6018Z" fill="#EAEAEA"/>
</g>
<defs>
<clipPath id="clip0_71_831">
<rect width="155" height="140" fill="white"/>
</clipPath>
</defs>
</svg>
